<svg width="25" height="24" viewBox="0 0 25 24" fill="none" xmlns="http://www.w3.org/2000/svg">
<g id="At/Icons/Outline/Bolsa">
<path id="Union" fill-rule="evenodd" clip-rule="evenodd" d="M8.92871 6C8.92871 3.79086 10.7196 2 12.9287 2C15.1378 2 16.9287 3.79086 16.9287 6L18.1373 6C19.7412 6 21.0704 7.22455 21.1771 8.80044L21.9218 19.8004C22.0391 21.532 20.6443 23 18.882 23H6.97544C5.2131 23 3.81837 21.532 3.9356 19.8004L4.68032 8.80044C4.78701 7.22455 6.11624 6 7.72016 6L8.92871 6ZM14.9287 9V8H10.9287V9C10.9287 9.55228 10.481 10 9.92871 10C9.37643 10 8.92871 9.55228 8.92871 9V8H7.72016C7.18552 8 6.74244 8.40818 6.70688 8.93348L5.96216 19.9335C5.92308 20.5107 6.38799 21 6.97544 21H18.882C19.4694 21 19.9343 20.5107 19.8953 19.9335L19.1505 8.93348C19.115 8.40818 18.6719 8 18.1373 8H16.9287V9C16.9287 9.55228 16.481 10 15.9287 10C15.3764 10 14.9287 9.55228 14.9287 9ZM12.9287 4C14.0333 4 14.9287 4.89543 14.9287 6H10.9287C10.9287 4.89543 11.8241 4 12.9287 4ZM13.9287 11.5L13.9287 13.5H15.9287V15.5H13.9287L13.9287 17.5H11.9287L11.9287 15.5H9.92871V13.5H11.9287L11.9287 11.5H13.9287Z" fill="white"/>
</g>
</svg>
